<svg width="45" height="46" viewBox="0 0 45 46" fill="none" xmlns="http://www.w3.org/2000/svg">
<path d="M4.85351 15.4027V40.3346H29.7854V29.4096C31.0219 28.5976 32.1476 27.7487 33.218 26.8352C33.4763 26.6322 33.9838 26.217 34.639 25.5895V42.7521C34.639 44.0901 33.5501 45.1789 32.2122 45.1789H2.42676C1.08881 45.1789 0 44.0901 0 42.7521V12.9759C0 11.638 1.08881 10.5492 2.42676 10.5492H10.5282C9.64244 12.0624 8.88581 13.6864 8.24913 15.4027H4.85351ZM44.4106 0.371538C43.5801 0.23313 42.5651 0.140858 41.4117 0.0762672L41.1165 0.0670399C40.9411 0.0578127 40.7658 0.0485855 40.5813 0.0393583H40.5536L40.1107 0.0209039H40.1015C32.0738 -0.246685 26.4821 2.14316 26.4821 2.14316C18.8696 5.22505 13.6286 10.7337 11.2664 19.1397C10.5006 21.8617 10.7405 24.6945 11.128 27.4811C11.1742 27.7395 11.3126 28.1178 12.1246 27.601C13.7393 23.1904 16.4337 19.0659 19.6355 15.5134C23.6863 11.029 28.2353 7.45804 33.8731 5.21583C34.9065 4.8006 35.8939 4.48688 36.9458 4.12701C36.9827 4.21929 36.8996 4.31156 36.8166 4.34847C36.7889 4.35769 36.752 4.36692 36.7243 4.37615C33.7255 5.52955 31.0496 7.24581 28.5582 9.25734C24.3598 12.653 20.8443 16.676 17.7716 21.0959C14.2099 26.217 11.3495 31.6887 9.47635 37.6495C9.47635 37.6495 9.14417 39.1351 10.2699 38.0555L15.2341 31.8825C15.2895 31.7717 15.3633 31.6887 15.4464 31.6241C15.5479 31.5318 15.677 31.4672 15.8339 31.4119C18.0946 30.563 20.3829 29.7879 22.579 28.7914C25.5317 27.4534 28.2445 25.7833 30.662 23.7072C30.9296 23.5042 33.6147 21.4096 36.4383 17.0728C36.4844 17.0174 36.5305 16.9528 36.5674 16.879C36.5859 16.8513 36.6044 16.8144 36.6228 16.7868C37.3056 15.7072 37.9977 14.4984 38.6712 13.1512L32.9781 12.3761C32.9781 12.3761 39.4187 11.4626 40.3691 9.3773C40.4244 9.26657 40.489 9.0728 40.5351 8.95285C41.0334 7.82713 41.5409 6.58145 42.1038 5.548C42.2791 5.01283 43.5617 2.7337 44.8719 1.39576C45.1857 1.05435 44.8812 0.445356 44.4106 0.371538Z" fill="#36577E"/>
</svg>
