<svg width="46" height="40" viewBox="0 0 46 40" fill="none" xmlns="http://www.w3.org/2000/svg">
<path d="M11.5441 36.6104C13.217 38.7593 15.6043 40 18.0762 40H38.4622C42.6164 40 46 36.0122 46 31.116V8.88397C46 3.98782 42.6164 0 38.4622 0H18.0762C15.5949 0 13.217 1.22958 11.5441 3.38964L1.03622 16.8707C-0.345405 18.6541 -0.345405 21.3348 1.03622 23.1183L11.5441 36.6104ZM2.7374 18.7095L13.2452 5.21739C14.4859 3.62227 16.2528 2.71393 18.0856 2.71393H38.4716C41.357 2.71393 43.7067 5.48325 43.7067 8.88397V31.105C43.7067 34.5057 41.357 37.275 38.4716 37.275H18.0762C16.2434 37.275 14.4765 36.3667 13.2358 34.7715L2.7374 21.2794C2.16407 20.5483 2.16407 19.4406 2.7374 18.7095Z" fill="#D9D9D9"/>
<path d="M21.1872 27.2057C21.4128 27.4716 21.7041 27.6045 22.0049 27.6045C22.3057 27.6045 22.597 27.4716 22.8226 27.2057L27.3152 21.9108L31.8078 27.2057C32.0334 27.4716 32.3248 27.6045 32.6255 27.6045C32.9263 27.6045 33.2176 27.4716 33.4432 27.2057C33.8944 26.674 33.8944 25.8211 33.4432 25.2894L28.9412 19.9944L33.4338 14.6995C33.885 14.1678 33.885 13.3149 33.4338 12.7832C32.9827 12.2514 32.259 12.2514 31.8078 12.7832L27.3152 18.0781L22.8226 12.7832C22.3714 12.2514 21.6477 12.2514 21.1966 12.7832C20.7455 13.3149 20.7455 14.1678 21.1966 14.6995L25.6892 19.9944L21.1966 25.2894C20.7455 25.8211 20.7455 26.6739 21.1872 27.2057Z" fill="#D9D9D9"/>
</svg>
