<svg width="104" height="104" viewBox="0 0 104 104" fill="none" xmlns="http://www.w3.org/2000/svg">
<path d="M52 0C23.2781 0 0 23.2781 0 52C0 80.7219 23.2781 104 52 104C80.7219 104 104 80.7219 104 52C104 23.2781 80.7219 0 52 0ZM13 52C13 30.4484 30.4688 13 52 13C60.5516 13 68.4531 15.7828 74.8719 20.4547L20.4547 74.8719C15.7828 68.4531 13 60.5516 13 52ZM52 91C43.4484 91 35.5469 88.2172 29.1281 83.5453L83.5453 29.1281C88.2172 35.5672 91 43.4484 91 52C91 73.5516 73.5312 91 52 91Z" fill="#36577E"/>
</svg>
