<svg width="94" height="87" viewBox="0 0 94 87" fill="none" xmlns="http://www.w3.org/2000/svg">
<path d="M49.9444 87H88.6111V48.3333H49.9444V87ZM53.1667 51.5556H85.3889V83.7778H70.8889V63.5003L77.8054 70.4168L80.0835 68.1387L69.2778 57.333L58.4721 68.1387L60.7502 70.4168L67.6667 63.5003V83.7778H53.1667V51.5556Z" fill="#36577E"/>
<path d="M34.7501 18.6389C34.7501 13.6912 30.7255 9.66666 25.7778 9.66666C20.8301 9.66666 16.8055 13.6912 16.8055 18.6389C16.8055 23.585 20.8301 27.6096 25.7778 27.6096C30.7255 27.6096 34.7501 23.5867 34.7501 18.6389ZM20.0277 18.6389C20.0277 15.4699 22.6071 12.8889 25.7778 12.8889C28.9484 12.8889 31.5278 15.4699 31.5278 18.6389C31.5278 21.808 28.9484 24.389 25.7778 24.389C22.6071 24.389 20.0277 21.8096 20.0277 18.6389Z" fill="#36577E"/>
<path d="M10.0694 55.8428C10.3868 56.2053 10.8315 56.3889 11.2778 56.3889C11.6548 56.3889 12.035 56.2568 12.3411 55.9878L38.6232 32.849L50.4149 44.6391C51.0448 45.269 52.0631 45.269 52.693 44.6391C53.3229 44.0091 53.3229 42.9909 52.693 42.361L49.7527 39.4223L64.5443 23.2242L82.6871 39.8557C83.3444 40.4566 84.3626 40.4115 84.9636 39.7558C85.5645 39.1001 85.521 38.0803 84.8637 37.4793L65.5303 19.7571C65.2146 19.4687 64.8021 19.3076 64.3703 19.335C63.9434 19.3543 63.5406 19.5428 63.2522 19.8586L47.473 37.141L39.8315 29.4995C39.2289 28.9001 38.2655 28.8695 37.6275 29.4286L10.2128 53.5679C9.54583 54.1559 9.47978 55.1741 10.0694 55.8428Z" fill="#36577E"/>
<path d="M91.8333 0H1.61111C0.721778 0 0 0.720167 0 1.61111V72.5C0 73.3909 0.721778 74.1111 1.61111 74.1111H40.2778C41.1671 74.1111 41.8889 73.3909 41.8889 72.5C41.8889 71.6091 41.1671 70.8889 40.2778 70.8889H3.22222V3.22222H90.2222V40.2778C90.2222 41.1687 90.944 41.8889 91.8333 41.8889C92.7227 41.8889 93.4444 41.1687 93.4444 40.2778V1.61111C93.4444 0.720167 92.7227 0 91.8333 0Z" fill="#36577E"/>
</svg>
