<svg width="158" height="158" viewBox="0 0 158 158" fill="none" xmlns="http://www.w3.org/2000/svg">
<circle cx="79" cy="79" r="78" fill="#D9D9D9" stroke="#36577E" stroke-width="2"/>
<path d="M81.9445 123H120.611V84.3333H81.9445V123ZM85.1667 87.5556H117.389V119.778H102.889V99.5003L109.805 106.417L112.084 104.139L101.278 93.333L90.4721 104.139L92.7502 106.417L99.6667 99.5003V119.778H85.1667V87.5556Z" fill="#36577E"/>
<path d="M66.7501 54.6389C66.7501 49.6912 62.7255 45.6667 57.7778 45.6667C52.8301 45.6667 48.8055 49.6912 48.8055 54.6389C48.8055 59.585 52.8301 63.6096 57.7778 63.6096C62.7255 63.6096 66.7501 59.5867 66.7501 54.6389ZM52.0277 54.6389C52.0277 51.4699 54.6071 48.8889 57.7778 48.8889C60.9485 48.8889 63.5278 51.4699 63.5278 54.6389C63.5278 57.808 60.9485 60.389 57.7778 60.389C54.6071 60.389 52.0277 57.8096 52.0277 54.6389Z" fill="#36577E"/>
<path d="M42.0694 91.8428C42.3868 92.2053 42.8315 92.3889 43.2778 92.3889C43.6548 92.3889 44.035 92.2568 44.3411 91.9878L70.6232 68.849L82.4149 80.6391C83.0448 81.269 84.0631 81.269 84.693 80.6391C85.323 80.0091 85.323 78.9909 84.693 78.361L81.7527 75.4223L96.5443 59.2242L114.687 75.8557C115.344 76.4566 116.363 76.4115 116.964 75.7558C117.565 75.1001 117.521 74.0803 116.864 73.4793L97.5303 55.7571C97.2146 55.4687 96.8021 55.3076 96.3703 55.335C95.9434 55.3543 95.5406 55.5428 95.2522 55.8586L79.473 73.141L71.8315 65.4995C71.2289 64.9001 70.2655 64.8695 69.6275 65.4286L42.2128 89.5679C41.5458 90.1559 41.4798 91.1741 42.0694 91.8428Z" fill="#36577E"/>
<path d="M123.833 36H33.6111C32.7218 36 32 36.7202 32 37.6111V108.5C32 109.391 32.7218 110.111 33.6111 110.111H72.2778C73.1671 110.111 73.8889 109.391 73.8889 108.5C73.8889 107.609 73.1671 106.889 72.2778 106.889H35.2222V39.2222H122.222V76.2778C122.222 77.1687 122.944 77.8889 123.833 77.8889C124.723 77.8889 125.444 77.1687 125.444 76.2778V37.6111C125.444 36.7202 124.723 36 123.833 36Z" fill="#36577E"/>
</svg>
