<svg width="25" height="28" viewBox="0 0 25 28" fill="none" xmlns="http://www.w3.org/2000/svg">
<path d="M21.8718 10.0968H21.2805V6.77131C21.2806 3.03761 17.3418 0 12.5002 0C7.65877 0 3.7199 3.03761 3.7199 6.77131V10.0968H3.12822C1.40341 10.0968 0 11.1792 0 12.5095V25.5873C0 26.9176 1.40341 28 3.12822 28H21.8718C23.5966 28 25 26.9176 25 25.5873V12.5095C25 11.1792 23.5968 10.0968 21.8718 10.0968ZM6.40123 6.77131C6.40123 4.17791 9.13726 2.068 12.5002 2.068C15.8631 2.068 18.5991 4.17791 18.5991 6.77131V10.0968H6.40123V6.77131ZM22.3187 25.5875C22.3187 25.7743 22.114 25.9321 21.8718 25.9321H3.12822C2.886 25.9321 2.68133 25.7743 2.68133 25.5875V12.5095C2.68133 12.3226 2.886 12.1648 3.12822 12.1648H5.06056H19.9398H21.8718C22.114 12.1648 22.3187 12.3226 22.3187 12.5095V25.5875Z" fill="#D9D9D9"/>
</svg>
