<svg width="28" height="25" viewBox="0 0 28 25" fill="none" xmlns="http://www.w3.org/2000/svg">
<path d="M27.5334 15.9436C25.8114 15.9436 24.4101 14.6496 24.4101 13.0595C24.4101 12.8212 24.2015 12.6286 23.9434 12.6286C23.6854 12.6286 23.4768 12.8212 23.4768 13.0595C23.4768 15.1253 25.2962 16.8054 27.5334 16.8054C27.7914 16.8054 28 16.6128 28 16.3745C28 16.1362 27.7909 15.9436 27.5334 15.9436Z" fill="#D9D9D9"/>
<path d="M27.1852 14.9344C27.4433 14.9344 27.6519 14.7418 27.6519 14.5035C27.6519 14.2652 27.4433 14.0726 27.1852 14.0726C26.7718 14.0726 26.4363 13.7623 26.4363 13.381C26.4363 13.1427 26.2277 12.9501 25.9696 12.9501C25.7116 12.9501 25.503 13.1427 25.503 13.381C25.5025 14.2376 26.2571 14.9344 27.1852 14.9344Z" fill="#D9D9D9"/>
<path d="M9.33408 0.861816C11.0565 0.861816 12.4574 2.15583 12.4574 3.74589C12.4574 3.98418 12.6664 4.17679 12.924 4.17679C13.1816 4.17679 13.3907 3.98418 13.3907 3.74589C13.3907 1.68011 11.5707 0 9.33408 0C9.07649 0 8.86743 0.192616 8.86743 0.430908C8.86743 0.6692 9.07602 0.861816 9.33408 0.861816Z" fill="#D9D9D9"/>
<path d="M9.21555 2.30191C9.21555 2.5402 9.4246 2.73282 9.68219 2.73282C10.0952 2.73282 10.4307 3.04307 10.4307 3.42443C10.4307 3.66272 10.6398 3.85533 10.8973 3.85533C11.1549 3.85533 11.364 3.66272 11.364 3.42443C11.364 2.56778 10.6094 1.871 9.68219 1.871C9.4246 1.871 9.21555 2.06362 9.21555 2.30191Z" fill="#D9D9D9"/>
<path d="M20.5682 15.8992C19.9727 15.5855 19.3563 15.4864 18.8318 15.6209C18.4379 15.7217 18.1169 15.9518 17.9003 16.287C17.4244 16.8127 16.8336 17.4272 16.6908 17.5225C15.5862 18.2136 14.7075 18.1322 13.7537 17.2514L8.39378 12.3024C7.43949 11.4212 7.35176 10.6098 8.09933 9.59159C8.20386 9.458 8.8693 8.91291 9.43861 8.47295C9.80166 8.27301 10.0508 7.97654 10.16 7.61286C10.3052 7.12895 10.1983 6.55972 9.85579 6.00514C9.77506 5.87759 7.8534 2.87243 6.08294 2.0076C5.18418 1.56851 4.09735 1.71932 3.37825 2.38335L2.19343 3.47614C0.320305 5.2058 -0.357735 7.166 0.177044 9.30202C0.62316 11.0825 1.92324 12.9772 4.04182 14.9331L10.9039 21.2701C13.5927 23.753 16.1574 25 18.5093 25C20.2364 25 21.8491 24.3269 23.3116 22.9769L24.4955 21.8837C25.2146 21.2196 25.3784 20.2161 24.9024 19.3861C23.9654 17.7508 20.7114 15.9768 20.5682 15.8992ZM23.8356 21.2744L22.6517 22.3676C19.5863 25.1974 15.856 24.6234 11.5642 20.6608L4.70166 14.3238C2.70861 12.4834 1.49252 10.7283 1.08654 9.10811C0.622226 7.25477 1.2004 5.61258 2.85327 4.08587L4.03716 2.99266C4.30175 2.74876 4.64987 2.62121 5.00312 2.62121C5.22104 2.62121 5.4413 2.66948 5.64523 2.76945C7.1819 3.52052 9.03122 6.41235 9.04709 6.43691C9.25661 6.77603 9.33641 7.12981 9.26035 7.38318C9.21368 7.53831 9.10915 7.65638 8.94116 7.74342L8.87116 7.78824C8.47311 8.09504 7.52582 8.83707 7.32749 9.10725C7.0419 9.49679 6.85244 9.87943 6.75305 10.2556C6.42126 9.64459 6.15294 8.93704 6.06474 8.15235C6.03814 7.91621 5.80855 7.74945 5.55236 7.76798C5.29617 7.79297 5.10951 8.00455 5.13611 8.24155C5.47303 11.2377 7.9962 13.1879 8.10353 13.2694C8.11519 13.278 8.12873 13.2815 8.14086 13.2888L13.0934 17.862C13.1144 17.8814 13.1363 17.8986 13.1573 17.9176C13.1737 17.9396 13.1844 17.9641 13.2059 17.984C13.2941 18.0645 15.401 19.9519 18.6185 20.2604C18.6348 20.2617 18.6512 20.2626 18.667 20.2626C18.9032 20.2626 19.1057 20.0976 19.1309 19.8765C19.1575 19.6395 18.9713 19.4279 18.7146 19.4029C17.7281 19.3086 16.8541 19.0414 16.1257 18.7316C16.4827 18.6325 16.8457 18.4679 17.2139 18.2378C17.507 18.0542 18.3105 17.1799 18.6423 16.8123L18.6908 16.7472C18.7851 16.5926 18.913 16.496 19.081 16.4525C19.3553 16.384 19.7385 16.456 20.1011 16.6464C20.1323 16.6637 23.264 18.3713 24.0774 19.7903C24.3601 20.2829 24.2631 20.8797 23.8356 21.2744Z" fill="#D9D9D9"/>
</svg>
