<svg width="37" height="34" viewBox="0 0 37 34" fill="none" xmlns="http://www.w3.org/2000/svg">
<path d="M34.3691 14.7344H21.0391V2.83984C21.0391 1.59375 19.8965 0.574219 18.5 0.574219C17.1035 0.574219 15.9609 1.59375 15.9609 2.83984V14.7344H2.63086C1.23438 14.7344 0.0917969 15.7539 0.0917969 17C0.0917969 18.2461 1.23438 19.2656 2.63086 19.2656H15.9609V31.1602C15.9609 32.4062 17.1035 33.4258 18.5 33.4258C19.8965 33.4258 21.0391 32.4062 21.0391 31.1602V19.2656H34.3691C35.7656 19.2656 36.9082 18.2461 36.9082 17C36.9082 15.7539 35.7656 14.7344 34.3691 14.7344Z" fill="#D9D9D9"/>
</svg>
