<svg width="75" height="72" viewBox="0 0 75 72" fill="none" xmlns="http://www.w3.org/2000/svg">
<path d="M64.0184 10.5423C56.9325 3.73988 47.5153 0 37.5 0C27.4847 0 18.0675 3.73988 10.9816 10.5423C3.89571 17.3448 0 26.3853 0 36C0 45.6147 3.89571 54.6552 10.9816 61.4577C18.0675 68.2601 27.4847 72 37.5 72C47.5153 72 56.9325 68.2601 64.0184 61.4577C71.1043 54.6552 75 45.6147 75 36C75 26.3853 71.1043 17.3448 64.0184 10.5423ZM37.5 68.0245C19.1104 68.0245 4.1411 53.654 4.1411 36C4.1411 18.346 19.1104 3.97546 37.5 3.97546C55.8896 3.97546 70.8589 18.346 70.8589 36C70.8589 53.654 55.8896 68.0245 37.5 68.0245Z" fill="#36577E"/>
<path d="M37.5 29.919C42.8834 29.919 47.2546 25.708 47.2546 20.5546C47.2546 15.4012 42.8834 11.1754 37.5 11.1754C32.1165 11.1754 27.7454 15.3865 27.7454 20.5399C27.7454 25.6932 32.1165 29.919 37.5 29.919ZM37.5 15.1509C40.5981 15.1509 43.1135 17.5656 43.1135 20.5399C43.1135 23.5141 40.5981 25.9288 37.5 25.9288C34.4018 25.9288 31.8865 23.5141 31.8865 20.5399C31.8865 17.5656 34.4018 15.1509 37.5 15.1509Z" fill="#36577E"/>
<path d="M52.2853 41.3006C48.865 36.4712 43.8957 34.0123 37.5 34.0123C31.1043 34.0123 26.135 36.4564 22.7147 41.3006C20.1687 44.8932 18.5429 49.7963 17.8988 55.8331C17.7761 56.9227 18.6043 57.9092 19.7393 58.0123C20.8742 58.1301 21.9018 57.335 22.0092 56.2454C23.3129 44.1276 28.5276 37.9877 37.5 37.9877C46.4724 37.9877 51.6871 44.1276 52.9908 56.2454C53.0982 57.2613 54.0031 58.027 55.046 58.027C55.1227 58.027 55.184 58.027 55.2607 58.0123C56.3957 57.8945 57.2239 56.9227 57.1012 55.8331C56.4571 49.7816 54.8313 44.8932 52.2853 41.3006Z" fill="#36577E"/>
</svg>
