<svg width="35" height="35" viewBox="0 0 35 35" fill="none" xmlns="http://www.w3.org/2000/svg">
<path d="M34.9968 0.664117C34.9895 0.605758 34.9822 0.54733 34.9603 0.488971C34.953 0.467078 34.9458 0.437864 34.9384 0.415971C34.902 0.335719 34.8509 0.262719 34.7926 0.197039C34.7269 0.13868 34.6539 0.0875729 34.5737 0.051107C34.5518 0.0437864 34.5226 0.0292138 34.5007 0.0292138C34.4424 0.0146411 34.384 0 34.3257 0C34.2965 0 34.2746 0 34.2454 0C34.1798 0 34.1068 0.0145727 34.0411 0.0364659C34.0266 0.0437864 34.0119 0.0437864 33.9974 0.0510386H33.9901L0.440139 14.632C0.0680913 14.7926 -0.099672 15.2231 0.0607734 15.5953C0.126429 15.7485 0.243172 15.8726 0.389051 15.9456L12.5864 22.4041L19.0498 34.6059C19.1738 34.8467 19.4219 34.9927 19.6918 35H19.721C19.9982 34.9927 20.2463 34.8175 20.363 34.5621L34.9457 1.00709V0.999767C34.953 0.985195 34.953 0.970554 34.9603 0.955981C34.9821 0.890301 34.9967 0.824622 34.9967 0.751621C34.9968 0.722476 35.004 0.693262 34.9968 0.664117ZM2.41705 15.3545L31.0647 2.89722L13.0021 20.9591L2.41705 15.3545ZM19.6407 32.5844L14.0381 21.9954L32.0933 3.92621L19.6407 32.5844Z" fill="#D9D9D9"/>
</svg>
