<svg width="29" height="31" viewBox="0 0 29 31" fill="none" xmlns="http://www.w3.org/2000/svg">
<path d="M26.2642 20.1967H25.0531V18.9998V16.6307H22.6565H20.5471C19.6359 15.5124 18.6358 14.6406 17.739 13.8769C19.2685 12.4069 20.2235 10.3556 20.2235 8.08514C20.2235 3.62718 16.5543 0 12.0447 0C7.53506 0 3.86585 3.62718 3.86585 8.08514C3.86585 10.3556 4.8205 12.4069 6.34994 13.8769C3.901 15.9622 0.660383 18.8462 0.660383 25.3737V26.5582H14.1245V27.434H16.5212H17.7326V28.6308V31H20.1292H22.6561H25.0527V28.6308V27.434H26.2638H28.6604V25.0649V22.5662V20.197L26.2642 20.1967ZM6.26246 8.08514C6.26246 4.93337 8.85639 2.36915 12.0447 2.36915C15.2326 2.36915 17.8269 4.93337 17.8269 8.08514C17.8269 11.0264 15.5677 13.454 12.6754 13.7656C12.6466 13.7683 12.6183 13.7719 12.5895 13.7739C12.4509 13.7869 12.3107 13.792 12.1697 13.7952C12.131 13.796 12.093 13.7991 12.0543 13.7995C11.9932 13.7991 11.9332 13.7948 11.8725 13.7928C11.7559 13.7893 11.6393 13.7857 11.5246 13.7755C11.4815 13.7723 11.4387 13.7672 11.396 13.7632C8.51208 13.4426 6.26246 11.0197 6.26246 8.08514ZM8.06231 15.5452C8.12543 15.4911 8.18814 15.4382 8.25085 15.3849C9.16556 15.7723 10.1426 16.0194 11.1436 16.1185C11.2139 16.1264 11.2854 16.1296 11.3561 16.1359C11.5434 16.1501 11.7311 16.1604 11.9197 16.164C11.9616 16.1644 12.0023 16.1703 12.0443 16.1703C12.0754 16.1703 12.1058 16.1659 12.1366 16.1655C12.3455 16.162 12.554 16.1509 12.7621 16.1343C12.8192 16.1292 12.8767 16.126 12.933 16.1201C13.9336 16.023 14.9162 15.775 15.8373 15.3849C15.8992 15.4382 15.9623 15.4915 16.0259 15.5452C16.5911 16.0258 17.173 16.5245 17.7322 17.08V18.9998V20.1967H16.5208H14.1241V22.5658V24.1887H3.09973C3.44924 19.4677 5.88979 17.3924 8.06231 15.5452ZM26.2642 25.0649H22.6565V28.6308H20.1296V25.0649H16.5216V22.5662H20.1296V19.0002H22.6565V22.5662H26.2642V25.0649Z" fill="#D9D9D9"/>
</svg>
